# Blender v2.78 (sub 0) OBJ File: 'wall.blend'
# www.blender.org
mtllib wall.mtl
o Wall_Cube
v -5.000000 1.000000 -0.499999
v -5.000000 1.000000 0.500001
v 5.000000 1.000000 0.499999
v 4.999997 1.000000 -0.500001
v -5.000001 -1.000000 -0.500000
v -4.999997 -1.000000 0.500000
v 5.000001 -1.000000 0.499999
v 4.999999 -1.000000 -0.500001
vt 0.9955 0.6727
vt 0.9998 1.0014
vt 0.0010 0.9945
vt -0.0033 0.6658
vt -0.0042 0.6668
vt 0.9953 0.6705
vt 1.0016 1.0005
vt 0.0021 0.9968
vt 0.9983 0.9999
vt 0.6649 0.9999
vt 0.6635 0.6725
vt 0.9969 0.6725
vt 0.0017 0.9990
vt 0.0017 0.6657
vt 0.9996 0.6626
vt 0.9996 0.9959
vt 0.9990 0.9989
vt 0.6657 0.9989
vt 0.6657 0.6656
vt 0.9990 0.6656
vt 0.0025 1.0024
vt 0.0011 0.6684
vt 1.0050 0.6714
vt 1.0065 1.0055
vn 0.0000 1.0000 -0.0000
vn 0.0000 -1.0000 0.0000
vn -1.0000 -0.0000 0.0000
vn 0.0000 -0.0000 1.0000
vn 1.0000 0.0000 -0.0000
vn -0.0000 0.0000 -1.0000
usemtl Material
s off
f 1/1/1 2/2/1 3/3/1 4/4/1
f 5/5/2 8/6/2 7/7/2 6/8/2
f 1/9/3 5/10/3 6/11/3 2/12/3
f 2/13/4 6/14/4 7/15/4 3/16/4
f 3/17/5 7/18/5 8/19/5 4/20/5
f 5/21/6 1/22/6 4/23/6 8/24/6
